<svg width="24" height="24" viewBox="0 0 24 24" fill="none" xmlns="http://www.w3.org/2000/svg">
<path fill-rule="evenodd" clip-rule="evenodd" d="M17.8154 6.21959L12.2923 11.7426L8.49996 7.95028L5.41641 11.0338L4.0022 9.61962L8.49996 5.12186L12.2923 8.91422L16.4012 4.80537L17.8154 6.21959ZM19 21L19 2H3V21H19Z" fill="url(#paint0_linear_6795_100759)"/>
<path fill-rule="evenodd" clip-rule="evenodd" d="M15.4133 13C17.8507 13 19.8266 14.9759 19.8266 17.4133C19.8266 18.156 19.6431 18.8558 19.319 19.47L21.6211 21.7723L19.7718 23.6215L17.4696 21.3192C16.8556 21.6432 16.1558 21.8266 15.4133 21.8266C12.9759 21.8266 11 19.8507 11 17.4133C11 14.9759 12.9759 13 15.4133 13ZM17.8651 17.4133C17.8651 16.0592 16.7674 14.9615 15.4133 14.9615C14.0592 14.9615 12.9615 16.0592 12.9615 17.4133C12.9615 18.7674 14.0592 19.8651 15.4133 19.8651C16.7674 19.8651 17.8651 18.7674 17.8651 17.4133Z" fill="#76808F"/>
<defs>
<linearGradient id="paint0_linear_6795_100759" x1="11" y1="2" x2="11" y2="21" gradientUnits="userSpaceOnUse">
<stop stop-color="#F0B90B"/>
<stop offset="1" stop-color="#F8D33A"/>
</linearGradient>
</defs>
</svg>
